<svg width="20" height="20" viewBox="0 0 20 20" fill="none" xmlns="http://www.w3.org/2000/svg">
<g clip-path="url(#clip0)">
<path d="M17.5 12.5V15H20V16.6667H17.5V19.1667H15.8334V16.6667H13.3334V15H15.8334V12.5H17.5ZM17.5067 2.5C17.9634 2.5 18.3334 2.87083 18.3334 3.3275V10.8333H16.6667V4.16667H3.33335V15.8325L11.6667 7.5L14.1667 10V12.3575L11.6667 9.8575L5.68919 15.8333H11.6667V17.5H2.49335C2.27403 17.4998 2.06377 17.4125 1.90876 17.2573C1.75376 17.1022 1.66669 16.8918 1.66669 16.6725V3.3275C1.66821 3.10865 1.75577 2.89918 1.91045 2.74435C2.06512 2.58951 2.2745 2.50175 2.49335 2.5H17.5067ZM6.66669 5.83333C7.10871 5.83333 7.53264 6.00893 7.8452 6.32149C8.15776 6.63405 8.33335 7.05797 8.33335 7.5C8.33335 7.94203 8.15776 8.36595 7.8452 8.67851C7.53264 8.99107 7.10871 9.16667 6.66669 9.16667C6.22466 9.16667 5.80074 8.99107 5.48818 8.67851C5.17562 8.36595 5.00002 7.94203 5.00002 7.5C5.00002 7.05797 5.17562 6.63405 5.48818 6.32149C5.80074 6.00893 6.22466 5.83333 6.66669 5.83333V5.83333Z" fill="#0F1624"/>
</g>
<defs>
<clipPath id="clip0">
<rect width="20" height="20" fill="white"/>
</clipPath>
</defs>
</svg>
